<svg width="78" height="56" viewBox="0 0 78 56" fill="none" xmlns="http://www.w3.org/2000/svg">
    <path
        d="M0 7C0 5.89543 0.895429 5 2 5H13.6C14.7046 5 15.6 5.89543 15.6 7V38.7C15.6 39.8046 16.4954 40.7 17.6 40.7H60.4C61.5046 40.7 62.4 39.8046 62.4 38.7V7C62.4 5.89543 63.2954 5 64.4 5H76C77.1046 5 78 5.89543 78 7V51C78 53.7614 75.7614 56 73 56H5C2.23858 56 0 53.7614 0 51V7Z"
        fill="#00F0FF" />
    <path
        d="M18 3C18 1.34315 19.3431 0 21 0H57C58.6569 0 60 1.34315 60 3V38C60 38.5523 59.5523 39 59 39H19C18.4477 39 18 38.5523 18 38V3Z"
        fill="#00F0FF" />
</svg>